<?xml version="1.0" encoding="UTF-8"?>
<svg xmlns="http://www.w3.org/2000/svg" xmlns:xlink="http://www.w3.org/1999/xlink" width="13pt" height="17pt" viewBox="0 0 13 17" version="1.1">
<g id="surface1">
<path style=" stroke:none;fill-rule:nonzero;fill:rgb(0%,0%,0%);fill-opacity:1;" d="M 6.90625 0.214844 C 3.433594 0.214844 0 2.488281 0 6.164062 C 0 8.5 1.339844 9.828125 2.152344 9.828125 C 2.488281 9.828125 2.679688 8.910156 2.679688 8.652344 C 2.679688 8.34375 1.878906 7.6875 1.878906 6.402344 C 1.878906 3.730469 3.949219 1.839844 6.632812 1.839844 C 8.9375 1.839844 10.644531 3.125 10.644531 5.484375 C 10.644531 7.25 9.921875 10.554688 7.585938 10.554688 C 6.742188 10.554688 6.023438 9.957031 6.023438 9.101562 C 6.023438 7.847656 6.917969 6.628906 6.917969 5.335938 C 6.917969 3.136719 3.738281 3.535156 3.738281 6.191406 C 3.738281 6.75 3.808594 7.367188 4.0625 7.875 C 3.59375 9.847656 2.640625 12.785156 2.640625 14.820312 C 2.640625 15.445312 2.730469 16.0625 2.792969 16.691406 C 2.90625 16.816406 2.851562 16.804688 3.027344 16.742188 C 4.734375 14.449219 4.671875 14 5.445312 11.003906 C 5.859375 11.78125 6.9375 12.199219 7.789062 12.199219 C 11.386719 12.199219 13 8.761719 13 5.664062 C 13 2.367188 10.09375 0.214844 6.90625 0.214844 Z M 6.90625 0.214844 "/>
</g>
</svg>
